<svg id="Capa_1" enable-background="new 0 0 512 512" height="512" viewBox="0 0 512 512" width="512" xmlns="http://www.w3.org/2000/svg"><g><g><path d="m466.78 401.32c-46.19 66.87-123.37 110.68-210.78 110.68-141.38 0-256-114.62-256-256 0-46.22 12.25-89.57 33.68-127 44.12-77.07 127.16-129 222.32-129 31.99 0 62.62 5.87 90.85 16.6l19.78 31.94c65.62 105.96 100.31 228.15 100.15 352.78z" fill="#464f6e"/><path d="m466.78 401.32c-46.19 66.87-123.37 110.68-210.78 110.68-141.38 0-256-114.62-256-256 0-46.22 12.25-89.57 33.68-127 44.12 77.07 127.16 129 222.32 129 68.2 0 130.17-26.67 176.05-70.16 22.99 68.48 34.82 140.56 34.73 213.48z" fill="#303c5a"/></g><g><path d="" fill="#9de6ed"/><g><path d="m512 256c0 53.97-16.71 104.04-45.22 145.32-3.72-.56-7.49-.78-11.29-.59-21.43 1.04-41.18 14.48-62.61 13.56-16.54-.71-32.36-10.74-40.06-25.39-5.91-11.26-6.81-24.8-3.03-36.88 2.4-7.65 7.42-19.17 4.34-27.34-3.28-8.7-29.9-21.75-34.25-27.72-4.34-5.98.55-15.77 5.44-27.18 4.9-11.41 29.36-12.5 29.36-12.5s-26.09-5.43-34.8-13.59c-8.69-8.15-10.87-21.75-2.72-26.63 3.52-2.11 8.44-8.35 12.91-14.77 5.82-8.37 3.15-19.91-5.68-25-3.73-2.14-7.47-4.68-10.48-7.53-13.16-12.44-4.76-30.89 6.98-40.75 9.86-8.27 22.16-14.22 29.13-25.04 12.98-20.15 2.15-46.25-1.71-69.89-.95-5.82-1.43-11.67-1.46-17.48 55.75 21.16 102.18 61.24 131.47 112.4 21.43 37.43 33.68 80.78 33.68 127z" fill="#ffc0a4"/><g fill="#ffa87a"><path d="m332.293 170.34c3.735-5.665 30.215 2.361 26.91 12.275s-30.646-6.61-26.91-12.275z"/><path d="m354.677 257.28s-26.091-5.429-34.795-13.589c-8.693-8.149-10.869-21.749-2.72-26.635.001 0 26.763 10.752 37.515 40.224z"/><path d="m354.677 257.28c-4.821 23.093-11.115 34.219-34.795 39.68-4.341-5.984.544-15.765 5.44-27.179 4.897-11.413 29.355-12.501 29.355-12.501z"/></g></g><circle cx="256" cy="256" fill="none" r="256"/><g><g><path d="m284.748 232.874-6.823-6.8-17.702 2.563-12.673-12.627-17.707 2.562-10.726-10.685c-2.152-2.144-2.159-5.626-.015-7.778 2.144-2.152 5.626-2.158 7.778-.015l6.83 6.805 17.707-2.562 12.673 12.625 17.704-2.563 10.719 10.683c2.151 2.144 2.157 5.627.013 7.778-2.144 2.152-5.626 2.158-7.778.014z" fill="#fff"/></g><g><path d="m236.226 312.697-14.985-2.168c-3.006-.435-5.091-3.224-4.656-6.23.435-3.006 3.224-5.091 6.231-4.656l9.543 1.38 12.675-12.627 17.705 2.563 12.672-12.626 14.978 2.17c3.006.436 5.09 3.226 4.654 6.232-.436 3.006-3.226 5.09-6.232 4.654l-9.534-1.382-12.672 12.626-17.705-2.563z" fill="#fff"/></g></g><path d="m239.581 267.005-19.301-8-19.304 8-16.329-6.767c-2.806-1.163-4.138-4.38-2.975-7.186 1.163-2.806 4.38-4.138 7.187-2.975l12.117 5.022 19.304-8 19.301 8 19.3-8 16.325 6.767c2.806 1.163 4.138 4.381 2.975 7.187-1.163 2.806-4.381 4.137-7.187 2.974l-12.113-5.021z" fill="#fff"/><g><path d="m224.249 387.724c0 4.332-3.506 7.816-7.816 7.816h-35.105l24.833 24.833c3.037 3.037 3.037 7.995 0 11.054-1.541 1.519-3.529 2.278-5.538 2.278-1.988 0-3.997-.759-5.516-2.278l-24.833-24.833v35.105c0 4.154-3.26 7.571-7.37 7.794-.156.022-.29.022-.447.022-4.31 0-7.816-3.506-7.816-7.816v-35.105l-24.811 24.833c-1.541 1.519-3.528 2.278-5.538 2.278-1.988 0-3.997-.759-5.516-2.278-3.059-3.059-3.059-8.017 0-11.054l24.811-24.833h-35.083c-4.333 0-7.816-3.484-7.816-7.816 0-4.31 3.484-7.816 7.816-7.816h35.083l-24.811-24.811c-3.059-3.059-3.059-7.994 0-11.054 3.06-3.059 7.995-3.059 11.054 0l24.811 24.811v-35.084c0-4.332 3.506-7.816 7.816-7.816.156 0 .29 0 .447.022 4.109.223 7.37 3.618 7.37 7.794v35.083l24.833-24.811c3.037-3.059 7.995-3.059 11.054 0 3.037 3.06 3.037 7.995 0 11.054l-24.833 24.811h35.105c4.31.001 7.816 3.507 7.816 7.817z" fill="#81f700"/><path d="m224.249 387.724c0 4.332-3.506 7.816-7.816 7.816h-35.105l24.833 24.833c3.037 3.037 3.037 7.995 0 11.054-1.541 1.519-3.529 2.278-5.538 2.278-1.988 0-3.997-.759-5.516-2.278l-24.833-24.833v35.105c0 4.154-3.26 7.571-7.37 7.794v-123.516c4.109.223 7.37 3.618 7.37 7.794v35.083l24.833-24.811c3.037-3.059 7.995-3.059 11.054 0 3.037 3.06 3.037 7.995 0 11.054l-24.833 24.811h35.105c4.31 0 7.816 3.506 7.816 7.816z" fill="#00cc7f"/><path d="m200.488 387.724c0 20.679-16.771 37.45-37.45 37.45h-.134c-20.612-.067-37.316-16.816-37.316-37.45s16.704-37.361 37.316-37.428h.134c20.679 0 37.45 16.748 37.45 37.428z" fill="#00cc7f"/><path d="m200.488 387.724c0 20.679-16.771 37.45-37.45 37.45h-.134v-74.878h.134c20.679 0 37.45 16.748 37.45 37.428z" fill="#029291"/><path d="m181.819 387.724c0 10.384-8.419 18.781-18.781 18.781h-.134c-10.295-.067-18.647-8.441-18.647-18.781 0-10.318 8.352-18.714 18.647-18.781h.134c10.362 0 18.781 8.419 18.781 18.781z" fill="#81f700"/><path d="m181.819 387.724c0 10.384-8.419 18.781-18.781 18.781h-.134v-37.562h.134c10.362 0 18.781 8.419 18.781 18.781z" fill="#00cc7f"/></g><g><path d="m111.77 276.764c0 3.098-2.507 5.59-5.59 5.59h-25.106l17.76 17.76c2.172 2.172 2.172 5.717 0 7.906-1.102 1.086-2.524 1.629-3.961 1.629-1.422 0-2.859-.543-3.945-1.629l-17.76-17.76v25.106c0 2.971-2.332 5.414-5.27 5.574-.112.016-.207.016-.319.016-3.082 0-5.59-2.507-5.59-5.59v-25.106l-17.744 17.76c-1.102 1.086-2.523 1.629-3.961 1.629-1.421 0-2.859-.543-3.945-1.629-2.188-2.188-2.188-5.733 0-7.906l17.744-17.76h-25.09c-3.098 0-5.59-2.492-5.59-5.59 0-3.082 2.491-5.59 5.59-5.59h25.09l-17.744-17.744c-2.188-2.188-2.188-5.717 0-7.906 2.188-2.188 5.718-2.188 7.906 0l17.744 17.744v-25.09c0-3.098 2.508-5.59 5.59-5.59.112 0 .208 0 .319.016 2.939.16 5.27 2.587 5.27 5.574v25.09l17.76-17.744c2.172-2.188 5.717-2.188 7.906 0 2.172 2.188 2.172 5.718 0 7.906l-17.76 17.744h25.106c3.083 0 5.59 2.508 5.59 5.59z" fill="#81f700"/><path d="m111.77 276.764c0 3.098-2.507 5.59-5.59 5.59h-25.106l17.76 17.76c2.172 2.172 2.172 5.717 0 7.906-1.102 1.086-2.524 1.629-3.961 1.629-1.422 0-2.859-.543-3.945-1.629l-17.76-17.76v25.106c0 2.971-2.332 5.414-5.27 5.574v-88.335c2.939.16 5.27 2.587 5.27 5.574v25.09l17.76-17.744c2.172-2.188 5.717-2.188 7.906 0 2.172 2.188 2.172 5.718 0 7.906l-17.76 17.744h25.106c3.083-.001 5.59 2.507 5.59 5.589z" fill="#00cc7f"/><path d="m94.777 276.764c0 14.789-11.994 26.783-26.783 26.783h-.096c-14.741-.048-26.687-12.026-26.687-26.783s11.946-26.719 26.687-26.767h.096c14.789 0 26.783 11.978 26.783 26.767z" fill="#00cc7f"/><path d="m94.777 276.764c0 14.789-11.994 26.783-26.783 26.783h-.096v-53.55h.096c14.789 0 26.783 11.978 26.783 26.767z" fill="#029291"/><path d="m81.425 276.764c0 7.426-6.021 13.431-13.431 13.431h-.096c-7.362-.048-13.335-6.037-13.335-13.431 0-7.379 5.973-13.384 13.335-13.432h.096c7.41.001 13.431 6.022 13.431 13.432z" fill="#81f700"/><path d="m81.425 276.764c0 7.426-6.021 13.431-13.431 13.431h-.096v-26.863h.096c7.41.001 13.431 6.022 13.431 13.432z" fill="#00cc7f"/></g><g><path d="m341.347 432.57c0 2.754-2.229 4.969-4.969 4.969h-22.32l15.789 15.788c1.931 1.931 1.931 5.083 0 7.028-.98.966-2.243 1.448-3.521 1.448-1.264 0-2.542-.483-3.507-1.448l-15.789-15.788v22.32c0 2.641-2.073 4.813-4.685 4.955-.099.014-.184.014-.284.014-2.74 0-4.969-2.229-4.969-4.969v-22.32l-15.774 15.788c-.98.966-2.243 1.448-3.521 1.448-1.264 0-2.542-.483-3.507-1.448-1.945-1.945-1.945-5.097 0-7.028l15.774-15.788h-22.305c-2.755 0-4.969-2.215-4.969-4.969 0-2.74 2.215-4.969 4.969-4.969h22.305l-15.774-15.775c-1.945-1.945-1.945-5.083 0-7.028s5.083-1.945 7.028 0l15.774 15.775v-22.306c0-2.754 2.229-4.969 4.969-4.969.099 0 .185 0 .284.014 2.613.142 4.685 2.3 4.685 4.955v22.306l15.789-15.775c1.931-1.945 5.083-1.945 7.028 0 1.931 1.945 1.931 5.083 0 7.028l-15.789 15.775h22.32c2.74 0 4.969 2.229 4.969 4.969z" fill="#81f700"/><path d="m341.347 432.57c0 2.754-2.229 4.969-4.969 4.969h-22.32l15.789 15.788c1.931 1.931 1.931 5.083 0 7.028-.98.966-2.243 1.448-3.521 1.448-1.264 0-2.542-.483-3.507-1.448l-15.789-15.788v22.32c0 2.641-2.073 4.813-4.685 4.955v-78.531c2.613.142 4.685 2.3 4.685 4.955v22.306l15.789-15.775c1.931-1.945 5.083-1.945 7.028 0 1.931 1.945 1.931 5.083 0 7.028l-15.789 15.775h22.32c2.74.001 4.969 2.23 4.969 4.97z" fill="#00cc7f"/><path d="m326.24 432.57c0 13.148-10.663 23.811-23.811 23.811h-.085c-13.105-.043-23.725-10.691-23.725-23.811s10.62-23.754 23.725-23.796h.085c13.148 0 23.811 10.648 23.811 23.796z" fill="#00cc7f"/><path d="m326.24 432.57c0 13.148-10.663 23.811-23.811 23.811h-.085v-47.607h.085c13.148 0 23.811 10.648 23.811 23.796z" fill="#029291"/><path d="m314.37 432.57c0 6.602-5.353 11.941-11.941 11.941h-.085c-6.545-.043-11.855-5.367-11.855-11.941 0-6.56 5.31-11.898 11.855-11.941h.085c6.588 0 11.941 5.353 11.941 11.941z" fill="#81f700"/><path d="m314.37 432.57c0 6.602-5.353 11.941-11.941 11.941h-.085v-23.881h.085c6.588-.001 11.941 5.352 11.941 11.94z" fill="#00cc7f"/></g><g><path d="m201.994 141.292c0 3.098-2.507 5.59-5.59 5.59h-25.106l17.76 17.76c2.172 2.172 2.172 5.717 0 7.906-1.102 1.086-2.523 1.629-3.961 1.629-1.422 0-2.859-.543-3.945-1.629l-17.76-17.76v25.106c0 2.971-2.332 5.414-5.271 5.574-.112.016-.207.016-.319.016-3.082 0-5.59-2.507-5.59-5.59v-25.106l-17.744 17.76c-1.102 1.086-2.523 1.629-3.961 1.629-1.421 0-2.859-.543-3.945-1.629-2.188-2.188-2.188-5.734 0-7.906l17.744-17.76h-25.09c-3.099 0-5.59-2.492-5.59-5.59 0-3.082 2.491-5.59 5.59-5.59h25.09l-17.744-17.744c-2.188-2.188-2.188-5.717 0-7.906 2.188-2.188 5.718-2.188 7.906 0l17.744 17.744v-25.09c0-3.098 2.507-5.59 5.59-5.59.112 0 .208 0 .319.016 2.939.16 5.271 2.587 5.271 5.574v25.09l17.76-17.744c2.172-2.188 5.717-2.188 7.906 0 2.172 2.188 2.172 5.718 0 7.906l-17.76 17.744h25.106c3.083.001 5.59 2.508 5.59 5.59z" fill="#81f700"/><path d="m201.994 141.292c0 3.098-2.507 5.59-5.59 5.59h-25.106l17.76 17.76c2.172 2.172 2.172 5.717 0 7.906-1.102 1.086-2.523 1.629-3.961 1.629-1.422 0-2.859-.543-3.945-1.629l-17.76-17.76v25.106c0 2.971-2.332 5.414-5.271 5.574v-88.335c2.939.16 5.271 2.587 5.271 5.574v25.09l17.76-17.744c2.172-2.188 5.717-2.188 7.906 0 2.172 2.188 2.172 5.718 0 7.906l-17.76 17.744h25.106c3.083 0 5.59 2.507 5.59 5.589z" fill="#00cc7f"/><path d="m185.001 141.292c0 14.789-11.994 26.783-26.783 26.783h-.096c-14.741-.048-26.687-12.026-26.687-26.783s11.946-26.719 26.687-26.767h.096c14.789 0 26.783 11.979 26.783 26.767z" fill="#00cc7f"/><path d="m185.001 141.292c0 14.789-11.994 26.783-26.783 26.783h-.096v-53.55h.096c14.789 0 26.783 11.979 26.783 26.767z" fill="#029291"/><path d="m171.65 141.292c0 7.426-6.021 13.431-13.431 13.431h-.096c-7.362-.048-13.335-6.037-13.335-13.431 0-7.379 5.973-13.384 13.335-13.431h.096c7.41 0 13.431 6.021 13.431 13.431z" fill="#81f700"/><path d="m171.65 141.292c0 7.426-6.021 13.431-13.431 13.431h-.096v-26.863h.096c7.41.001 13.431 6.022 13.431 13.432z" fill="#00cc7f"/></g></g></g></svg>